<svg width="86" height="117" fill="none" xmlns="http://www.w3.org/2000/svg"><g filter="url(#a)"><path d="M82.8 4H3.3A3.2 3.2 0 0 0 .1 7.2v46.4c0 1.8 1.5 3.2 3.2 3.2h79.5c1.8 0 3.2-1.4 3.2-3.2V7.2C86 5.4 84.6 4 82.8 4ZM8.4 37.2h-.2A3.2 3.2 0 0 1 5 34v-7.2c0-1.8 1.4-3.2 3.2-3.2h.2v13.6Zm61.2 15.2H13.3v-44h56.3v44Zm8.8-17.8a4.1 4.1 0 1 1 0-8.3 4.1 4.1 0 0 1 0 8.3ZM54.7 0H31.5v2.8h23.2V0ZM46.6 64.9v-3h8V59H31.6V62h8V97a6 6 0 0 0-3.6 5.6V117h14.3v-14.3a6 6 0 0 0-3.6-5.6v-28h4.8l5 1.3v-6.8l-5 1.3h-4.8Z" fill="#363636"/><path d="M8.4 37.7h.5V23.1h-.7c-2 0-3.7 1.6-3.7 3.7V34c0 2 1.6 3.7 3.7 3.7h.2ZM69.6 53h.5V8H12.8v45h56.8ZM46.1 65v.5H51.5l4.5-1.1v5.4l-4.5-1H46V97.4h.3c2 1 3.3 3 3.3 5.2v13.8H36.4v-13.8c0-2.3 1.4-4.2 3.3-5.1l.3-.1V61.4h-8v-1.8h22.2v1.8H46v3.5ZM3.3 4.5h79.5c1.5 0 2.7 1.2 2.7 2.7v46.4c0 1.5-1.2 2.7-2.7 2.7H3.3a2.7 2.7 0 0 1-2.7-2.7V7.2c0-1.5 1.2-2.7 2.7-2.7Zm70.5 26a4.6 4.6 0 1 0 9.2 0 4.6 4.6 0 0 0-9.2 0ZM32 .4h22.2v1.8H32V.5Z" stroke="#000"/></g><defs><filter id="a" x="-3.9" y="0" width="93.9" height="125" filterUnits="userSpaceOnUse" color-interpolation-filters="sRGB"><feFlood flood-opacity="0" result="BackgroundImageFix"/><feColorMatrix in="SourceAlpha" values="0 0 0 0 0 0 0 0 0 0 0 0 0 0 0 0 0 0 127 0" result="hardAlpha"/><feOffset dy="4"/><feGaussianBlur stdDeviation="2"/><feComposite in2="hardAlpha" operator="out"/><feColorMatrix values="0 0 0 0 0 0 0 0 0 0 0 0 0 0 0 0 0 0 0.25 0"/><feBlend in2="BackgroundImageFix" result="effect1_dropShadow"/><feBlend in="SourceGraphic" in2="effect1_dropShadow" result="shape"/></filter></defs></svg>